<?xml version="1.0" standalone="no"?>
<!DOCTYPE svg PUBLIC "-//W3C//DTD SVG 20010904//EN"
 "http://www.w3.org/TR/2001/REC-SVG-20010904/DTD/svg10.dtd">
<svg version="1.0" xmlns="http://www.w3.org/2000/svg"
 width="700.000000pt" height="700.000000pt" viewBox="0 0 700.000000 700.000000"
 preserveAspectRatio="xMidYMid meet">
<metadata>
Created by potrace 1.14, written by Peter Selinger 2001-2017
</metadata>
<g transform="translate(0.000000,700.000000) scale(0.100000,-0.100000)"
fill="#000000" stroke="none">
<path d="M3465 5730 c-11 -4 -56 -48 -100 -96 -44 -49 -98 -109 -121 -134 -23
-25 -124 -137 -224 -250 -100 -113 -199 -223 -219 -245 -67 -74 -188 -210
-212 -239 -13 -16 -34 -38 -45 -50 -12 -12 -63 -67 -113 -124 -145 -163 -153
-172 -208 -231 -71 -76 -88 -109 -79 -155 5 -27 16 -42 39 -56 30 -19 53 -20
459 -20 l427 0 1 -222 c1 -123 3 -299 5 -393 2 -93 4 -230 5 -303 2 -131 3
-135 30 -165 l28 -32 356 -1 c268 0 363 3 386 13 57 23 57 28 55 591 l-1 512
423 0 c465 0 468 0 493 59 23 57 12 76 -179 287 -25 28 -60 66 -76 85 -81 90
-210 235 -215 239 -3 3 -23 25 -45 50 -22 25 -74 84 -115 130 -41 46 -99 111
-129 145 -30 33 -72 80 -95 105 -23 25 -95 106 -161 180 -66 74 -129 144 -140
155 -11 11 -44 49 -74 83 -69 80 -107 100 -156 82z"/>
<path d="M2309 2663 c-66 -27 -78 -115 -22 -160 25 -21 39 -23 135 -23 l107 0
0 -427 c0 -236 0 -440 0 -455 1 -14 13 -40 27 -57 35 -42 90 -43 135 -3 l31
28 1 456 0 456 113 4 c126 3 149 14 160 75 8 42 -6 76 -41 99 -24 15 -60 17
-322 18 -205 1 -304 -3 -324 -11z"/>
<path d="M3440 2666 c-162 -35 -299 -168 -339 -329 -12 -48 -16 -417 -6 -470
37 -189 204 -336 400 -354 218 -19 419 128 468 343 9 41 13 120 12 254 -2 245
-12 286 -97 397 -98 128 -276 193 -438 159z m172 -198 c57 -17 121 -78 148
-140 21 -48 22 -66 22 -240 -1 -162 -4 -194 -20 -231 -42 -92 -131 -150 -231
-149 -94 0 -180 52 -224 136 -19 37 -21 58 -23 232 -2 209 6 253 58 318 57 71
174 103 270 74z"/>
<path d="M4141 2658 c-17 -11 -34 -32 -38 -47 -4 -14 -6 -255 -6 -534 l0 -509
27 -26 c39 -39 108 -38 142 1 23 27 24 34 25 185 0 86 0 182 -1 213 l-1 56
159 1 c88 0 179 6 203 12 204 54 309 282 218 474 -36 78 -125 155 -203 178
-25 7 -130 12 -268 13 -209 2 -229 1 -257 -17z m465 -183 c53 -9 104 -79 104
-142 0 -43 -30 -92 -73 -117 -37 -23 -50 -24 -193 -25 l-154 -2 0 145 0 145
33 3 c47 4 247 0 283 -7z"/>
</g>
</svg>
