<?xml version="1.0" standalone="no"?>
<!DOCTYPE svg PUBLIC "-//W3C//DTD SVG 20010904//EN"
 "http://www.w3.org/TR/2001/REC-SVG-20010904/DTD/svg10.dtd">
<svg version="1.0" xmlns="http://www.w3.org/2000/svg"
 width="1412.000000pt" height="1412.000000pt" viewBox="0 0 1412.000000 1412.000000"
 preserveAspectRatio="xMidYMid meet">
<metadata>
Created by potrace 1.14, written by Peter Selinger 2001-2017
</metadata>
<g transform="translate(0.000000,1412.000000) scale(0.100000,-0.100000)"
fill="#000000" stroke="none">
<path d="M0 7060 l0 -7060 7060 0 7060 0 0 3799 c0 3018 -3 3801 -13 3805 -9
5 -9 7 1 12 9 4 12 160 12 726 0 675 -1 722 -18 734 -16 13 -16 15 1 28 16 12
17 144 17 2515 l0 2501 -7060 0 -7060 0 0 -7060z m1018 6043 c-2 -10 -10 -18
-18 -18 -8 0 -16 8 -18 18 -2 12 3 17 18 17 15 0 20 -5 18 -17z m12840 -115
c-3 -7 -12 -14 -21 -16 -12 -2 -15 1 -11 12 7 19 38 22 32 4z m42 -1558 c0 -5
-4 -10 -10 -10 -5 0 -10 5 -10 10 0 6 5 10 10 10 6 0 10 -4 10 -10z m-56 -996
c23 -9 19 -50 -6 -68 -27 -19 -48 -20 -72 -3 -43 32 24 92 78 71z m-5834 -519
c222 -27 266 -34 340 -50 41 -10 80 -21 85 -25 6 -4 35 -10 66 -13 39 -3 74
-14 112 -36 30 -17 63 -31 74 -31 11 0 23 -3 27 -7 4 -5 11 -9 14 -9 29 -6 51
-18 46 -25 -5 -8 9 -13 29 -10 4 0 7 -4 7 -9 0 -5 9 -10 20 -10 11 0 20 -4 20
-10 0 -5 9 -10 20 -10 11 0 20 -4 20 -8 0 -5 12 -15 28 -23 15 -8 45 -31 67
-51 22 -21 45 -38 51 -38 5 0 23 -13 39 -30 16 -16 34 -30 40 -30 6 0 33 -22
60 -50 28 -27 55 -50 61 -50 12 0 381 -368 397 -395 5 -10 25 -31 43 -47 19
-17 34 -35 34 -40 0 -6 15 -28 33 -49 50 -59 77 -96 77 -107 0 -5 9 -17 20
-27 11 -10 20 -23 20 -30 0 -7 9 -20 20 -30 11 -10 20 -24 20 -30 0 -7 6 -18
14 -24 16 -14 226 -431 226 -449 0 -6 9 -27 20 -47 11 -20 20 -44 20 -55 0
-10 5 -22 10 -25 6 -3 10 -15 10 -25 0 -11 9 -36 20 -55 11 -20 23 -63 27 -96
3 -33 10 -62 14 -65 5 -3 9 -20 9 -39 0 -19 5 -37 10 -40 6 -3 10 -21 10 -40
0 -19 5 -37 10 -40 6 -3 10 -21 10 -40 0 -19 4 -36 9 -39 5 -4 12 -29 16 -58
4 -29 11 -59 16 -68 4 -8 11 -36 14 -61 4 -30 11 -46 20 -47 8 -1 26 -2 40 -3
21 -1 23 -4 14 -20 -7 -14 -16 -18 -34 -13 l-25 6 5 -88 c2 -49 8 -90 12 -91
11 -4 3 -456 -8 -468 -5 -5 -9 -55 -9 -111 0 -73 -4 -105 -13 -113 -8 -6 -14
-31 -14 -55 -1 -24 -6 -53 -12 -64 -6 -12 -11 -38 -11 -60 0 -23 -6 -45 -15
-52 -8 -7 -16 -22 -16 -34 -2 -20 -2 -20 -6 2 -5 26 -21 28 -39 5 -13 -17 -13
-17 -14 0 0 36 -19 15 -26 -30 -3 -27 -10 -52 -14 -58 -5 -5 -9 -14 -10 -20
-6 -27 -64 -115 -75 -115 -22 0 -28 20 -8 28 22 9 24 35 2 44 -19 8 -15 51 7
69 8 6 14 17 14 24 0 8 6 16 13 18 7 3 5 6 -5 6 -10 1 -18 -6 -18 -14 0 -9
-16 -23 -35 -32 -19 -9 -35 -24 -35 -32 0 -12 -2 -13 -8 -3 -15 22 -65 10 -98
-23 -18 -20 -45 -35 -68 -39 -21 -4 -46 -11 -55 -16 -72 -37 -100 -44 -191
-45 -85 0 -97 -2 -117 -22 -14 -14 -35 -23 -53 -23 -17 0 -39 -9 -51 -21 -17
-17 -29 -20 -57 -15 -115 18 -118 18 -158 -2 l-40 -20 -45 20 c-46 20 -119 19
-160 -3 -23 -12 -121 37 -160 80 -23 26 -34 29 -114 36 -64 5 -84 10 -72 17 9
5 17 14 17 19 0 16 -77 2 -176 -32 -49 -17 -121 -39 -160 -48 -39 -10 -88 -28
-107 -40 -25 -15 -44 -20 -61 -15 -34 8 -32 14 9 44 18 14 36 32 38 41 2 9 24
27 48 41 32 17 43 30 42 45 -2 17 5 22 45 27 57 8 157 57 157 77 0 20 -39 23
-77 5 -44 -20 -178 -12 -178 11 0 3 8 12 18 19 16 12 15 13 -5 14 -13 0 -23
-6 -23 -14 0 -16 -32 -24 -101 -25 -39 -1 -49 3 -63 23 -14 22 -20 24 -47 16
-17 -5 -46 -18 -65 -29 -21 -13 -36 -16 -40 -10 -8 13 -9 12 72 68 37 25 69
51 71 57 6 18 -64 24 -108 9 -21 -8 -45 -12 -52 -10 -18 6 -195 19 -252 19
-27 -1 -82 -11 -122 -23 -39 -13 -76 -22 -82 -20 -6 2 0 17 14 33 30 35 30 38
5 61 -20 18 -21 18 -43 -3 -13 -13 -35 -21 -52 -21 -17 1 -73 0 -125 -2 -93
-4 -95 -4 -92 18 6 42 -14 60 -85 78 -82 21 -177 47 -182 51 -2 2 10 15 25 29
28 26 28 27 9 41 -11 8 -38 19 -60 24 -22 6 -56 18 -75 26 -33 15 -34 17 -15
30 10 8 22 14 27 14 16 0 -5 29 -25 34 -64 18 -72 65 -15 85 l32 11 -23 18
c-54 40 -63 53 -59 84 4 24 1 32 -14 36 -14 3 -18 13 -16 46 1 22 0 48 -3 56
-3 11 6 16 36 18 30 2 36 0 25 -8 -12 -8 -11 -10 8 -10 13 0 22 6 22 15 0 8
-4 15 -10 15 -5 0 -10 6 -10 14 0 8 -8 21 -18 28 -10 7 -22 25 -25 39 -4 17
-16 29 -32 33 -14 4 -25 11 -25 16 0 6 -13 10 -30 10 -16 0 -30 5 -30 10 0 6
30 10 69 10 39 0 73 5 76 10 3 6 -5 10 -18 10 -40 0 -48 50 -9 50 17 1 62 33
62 44 0 3 -10 6 -22 7 -13 0 -17 3 -10 6 23 9 12 32 -20 41 l-33 8 28 6 c19 4
30 1 34 -8 5 -15 35 -19 47 -7 4 4 34 8 66 9 38 1 69 8 87 19 15 10 39 19 53
20 17 1 26 7 28 22 6 38 112 93 181 93 21 0 71 25 184 93 16 10 44 17 62 16
40 -4 108 28 101 47 -3 7 3 18 13 24 15 7 20 6 24 -9 3 -14 11 -17 36 -13 17
2 31 8 31 13 0 9 -16 13 -34 10 -15 -3 -26 23 -13 31 17 10 -174 -2 -194 -13
-10 -5 -34 -9 -53 -9 -50 0 -46 22 6 46 40 18 53 27 101 71 10 10 17 31 17 55
0 36 -12 49 -25 28 -19 -31 -129 -110 -152 -110 l-26 0 24 26 24 27 -78 -5
c-74 -5 -79 -4 -98 20 -10 14 -22 42 -25 63 -5 29 -13 40 -35 49 -37 16 -30
26 21 34 43 7 94 -13 105 -41 3 -8 0 -11 -6 -7 -7 4 -9 -2 -7 -16 1 -13 10
-28 20 -33 25 -16 46 7 84 89 19 40 40 74 49 78 8 3 15 9 15 15 0 14 -30 18
-85 12 -38 -5 -49 -10 -47 -22 2 -13 -11 -16 -80 -17 -54 -1 -78 1 -69 7 12 8
13 15 3 35 -10 23 -14 24 -44 15 -73 -23 -107 -27 -203 -24 -98 3 -147 14
-160 34 -3 6 -20 11 -36 11 -66 0 -121 58 -82 87 20 16 97 27 126 19 107 -31
287 -22 287 13 0 25 -31 39 -140 62 -109 22 -130 21 -130 -10 0 -16 -6 -19
-32 -18 -18 2 -39 6 -47 11 -12 8 -11 11 3 22 9 6 13 15 8 18 -18 11 -141 24
-237 25 -113 1 -131 3 -174 25 -16 9 -41 16 -55 16 -14 0 -27 4 -31 9 -7 12
31 34 48 28 7 -2 23 4 36 14 13 11 36 19 52 19 16 0 36 8 46 18 33 34 143 49
143 20 0 -6 29 -7 78 -3 42 4 122 9 177 11 55 2 125 6 155 9 30 4 69 8 85 9
17 2 56 15 88 30 52 25 68 28 160 27 87 -1 108 2 144 21 36 19 45 20 66 9 20
-11 29 -10 55 3 17 9 44 16 61 16 30 0 49 15 36 28 -3 4 -28 7 -55 8 -27 1
-52 4 -57 6 -4 3 -21 5 -37 6 -17 1 -48 11 -70 21 -59 27 -211 36 -272 15 -39
-13 -54 -14 -91 -4 -54 16 -59 24 -33 50 24 24 32 25 71 4 30 -15 30 -15 27 8
-3 22 -6 23 -98 23 -96 0 -120 6 -120 29 0 14 -50 26 -115 26 -22 0 -53 7 -69
15 -15 8 -39 15 -52 15 -12 0 -26 5 -29 10 -8 13 -90 13 -176 -2 -53 -8 -73
-8 -81 0 -7 7 -22 12 -35 12 -13 0 -23 6 -23 13 0 19 21 37 42 37 10 0 18 6
18 14 0 9 10 13 31 12 25 -1 35 5 48 28 24 43 45 53 74 37 27 -14 49 -8 41 12
-3 9 9 11 45 9 42 -3 53 0 82 25 19 16 43 33 54 37 18 6 17 9 -13 23 -36 18
-34 29 7 38 16 3 32 13 35 21 3 8 19 14 41 14 40 0 44 9 15 35 -11 10 -20 13
-20 7 0 -8 -19 -12 -51 -12 -61 0 -57 16 6 26 25 3 45 10 45 14 0 5 18 11 39
15 22 3 47 15 57 26 21 23 37 24 54 4 13 -16 43 -12 69 9 8 6 37 18 65 26 31
10 51 21 51 30 0 10 9 14 25 13 165 -16 185 -24 174 -69 -4 -16 1 -24 26 -34
27 -11 32 -11 45 6 8 11 15 25 15 32 0 14 20 17 20 2 0 -5 18 -10 39 -10 22 0
43 5 46 10 3 6 -5 10 -19 10 -26 0 -66 44 -66 73 0 8 -7 18 -16 21 -9 3 -14
12 -11 19 5 15 -36 59 -65 70 -10 3 -18 14 -18 24 0 43 13 61 50 73 36 12 61
15 149 19 l35 1 -22 20 c-25 24 -30 52 -7 44 9 -4 15 0 15 9 0 8 -7 17 -15 21
-8 3 -15 12 -15 21 0 12 8 14 39 9 30 -5 39 -3 44 11 7 16 -20 64 -35 65 -16
0 -7 17 15 27 13 6 34 6 51 2 18 -5 35 -4 42 2 8 7 14 6 19 -2 4 -6 1 -15 -6
-20 -10 -6 -8 -10 11 -17 31 -11 75 5 88 33 8 17 17 20 43 17 19 -2 45 1 59 7
14 6 39 8 55 5 17 -3 82 -11 145 -19z m4020 -45 c0 -5 -7 -10 -15 -10 -8 0
-15 5 -15 10 0 6 7 10 15 10 8 0 15 -4 15 -10z m-4616 -118 c2 -4 0 -14 -5
-22 -8 -13 -10 -13 -19 0 -5 8 -10 18 -10 23 0 10 28 9 34 -1z m-434 -312 c0
-23 -22 -27 -39 -7 -13 16 -5 27 21 27 11 0 18 -7 18 -20z m3980 -156 c0 -8
-5 -12 -10 -9 -6 4 -8 11 -5 16 9 14 15 11 15 -7z m880 -1014 c0 -5 -4 -10
-10 -10 -5 0 -10 5 -10 10 0 6 5 10 10 10 6 0 10 -4 10 -10z m2092 -302 c-9
-9 -12 -7 -12 12 0 19 3 21 12 12 9 -9 9 -15 0 -24z m-462 2 c0 -5 -7 -10 -15
-10 -8 0 -15 5 -15 10 0 6 7 10 15 10 8 0 15 -4 15 -10z m-950 -20 c0 -5 -4
-10 -10 -10 -5 0 -10 5 -10 10 0 6 5 10 10 10 6 0 10 -4 10 -10z m-164 -95 c7
-18 -13 -45 -33 -45 -17 0 -27 24 -19 45 7 20 45 19 52 0z m-5340 -19 c10 -39
-12 -68 -49 -64 -38 4 -46 27 -23 63 22 34 63 34 72 1z m6224 -16 c0 -5 -2
-10 -4 -10 -3 0 -8 5 -11 10 -3 6 -1 10 4 10 6 0 11 -4 11 -10z m100 0 c0 -5
-4 -10 -9 -10 -6 0 -13 5 -16 10 -3 6 1 10 9 10 9 0 16 -4 16 -10z m-332 -12
c-6 -18 -28 -21 -28 -4 0 9 7 16 16 16 9 0 14 -5 12 -12z m-11410 -76 c2 -7
-3 -12 -12 -12 -9 0 -16 7 -16 16 0 17 22 14 28 -4z m11718 -4 c4 -5 -4 -8
-17 -6 -12 1 -24 8 -26 15 -5 14 34 6 43 -9z m54 18 c0 -3 -4 -8 -10 -11 -5
-3 -10 -1 -10 4 0 6 5 11 10 11 6 0 10 -2 10 -4z m-6832 -39 c2 -19 -1 -27
-12 -27 -18 0 -35 29 -29 48 9 23 38 8 41 -21z m307 13 c3 -5 1 -10 -4 -10 -6
0 -11 5 -11 10 0 6 2 10 4 10 3 0 8 -4 11 -10z m6819 -11 c-3 -5 -10 -7 -15
-3 -5 3 -7 10 -3 15 3 5 10 7 15 3 5 -3 7 -10 3 -15z m-1179 -9 c0 -22 -39
-19 -43 3 -3 15 1 18 20 15 12 -2 23 -10 23 -18z m1054 -93 c13 -16 5 -27 -21
-27 -18 0 -25 20 -11 33 10 10 19 8 32 -6z m-261 -30 c2 -10 -3 -17 -12 -17
-10 0 -16 9 -16 21 0 24 23 21 28 -4z m52 -17 c0 -5 -4 -10 -10 -10 -5 0 -10
5 -10 10 0 6 5 10 10 10 6 0 10 -4 10 -10z m733 -15 c1 -6 -11 -11 -28 -13
-29 -2 -29 -2 -10 13 20 16 35 16 38 0z m-14013 -35 c0 -5 -2 -10 -4 -10 -3 0
-8 5 -11 10 -3 6 -1 10 4 10 6 0 11 -4 11 -10z m13448 -19 c3 -8 -1 -12 -9 -9
-7 2 -15 10 -17 17 -3 8 1 12 9 9 7 -2 15 -10 17 -17z m-12458 -1 c0 -5 -4
-10 -10 -10 -5 0 -10 5 -10 10 0 6 5 10 10 10 6 0 10 -4 10 -10z m10224 -40
c-15 -15 -56 -17 -61 -2 -3 8 7 12 33 12 25 0 35 -3 28 -10z m62 -22 c8 -12
-21 -38 -43 -38 -19 0 -16 20 5 36 21 17 29 17 38 2z m2354 -18 c0 -13 5 -18
15 -14 8 4 15 2 15 -4 0 -5 -15 -10 -34 -9 -23 1 -44 -8 -66 -26 -17 -15 -36
-25 -41 -21 -14 8 -11 24 6 24 8 0 15 5 15 10 0 6 -10 8 -24 4 -14 -3 -27 -1
-31 6 -11 17 15 31 36 19 30 -16 60 -11 66 11 7 26 43 27 43 0z m-1815 -10 c3
-5 2 -10 -4 -10 -5 0 -13 5 -16 10 -3 6 -2 10 4 10 5 0 13 -4 16 -10z m-101
-6 c23 -9 20 -34 -3 -34 -22 0 -35 15 -26 30 7 12 8 12 29 4z m1424 -12 c3 -9
-2 -13 -14 -10 -9 1 -19 9 -22 16 -3 9 2 13 14 10 9 -1 19 -9 22 -16z m652 -1
c0 -12 -20 -25 -27 -18 -7 7 6 27 18 27 5 0 9 -4 9 -9z m-2640 -17 c0 -9 -5
-14 -12 -12 -18 6 -21 28 -4 28 9 0 16 -7 16 -16z m2220 -13 c0 -12 -20 -25
-27 -18 -7 7 6 27 18 27 5 0 9 -4 9 -9z m100 -1 c0 -5 -7 -10 -15 -10 -8 0
-15 5 -15 10 0 6 7 10 15 10 8 0 15 -4 15 -10z m-2782 -39 c3 -21 -11 -40 -30
-41 -5 0 -8 16 -8 36 0 28 3 35 18 32 9 -2 19 -14 20 -27z m130 17 c-6 -18
-28 -21 -28 -4 0 9 7 16 16 16 9 0 14 -5 12 -12z m-337 -14 c10 -9 23 -13 30
-8 14 8 68 12 87 6 7 -2 12 -21 12 -43 0 -38 1 -39 28 -34 22 5 24 4 10 -5
-12 -8 -16 -19 -12 -39 5 -23 2 -29 -17 -34 -32 -8 -46 9 -52 62 -3 24 -11 47
-18 52 -19 12 -79 11 -79 -1 0 -13 -11 -12 -32 4 -11 8 -15 20 -11 34 6 26 29
28 54 6z m2849 -8 c0 -3 -4 -8 -10 -11 -5 -3 -10 -1 -10 4 0 6 5 11 10 11 6 0
10 -2 10 -4z m-12105 -36 c-5 -8 -11 -8 -17 -2 -6 6 -7 16 -3 22 5 8 11 8 17
2 6 -6 7 -16 3 -22z m11850 20 c3 -5 -1 -10 -9 -10 -9 0 -16 5 -16 10 0 6 4
10 9 10 6 0 13 -4 16 -10z m-10900 -20 c3 -5 1 -10 -4 -10 -6 0 -11 5 -11 10
0 6 2 10 4 10 3 0 8 -4 11 -10z m8630 0 c3 -5 -1 -10 -10 -10 -9 0 -13 5 -10
10 3 6 8 10 10 10 2 0 7 -4 10 -10z m69 -21 c-3 -5 -10 -7 -15 -3 -5 3 -7 10
-3 15 3 5 10 7 15 3 5 -3 7 -10 3 -15z m134 -21 c3 10 7 10 20 0 12 -10 16
-10 19 0 8 23 23 12 23 -18 0 -18 -6 -33 -15 -36 -14 -6 -13 -8 2 -20 24 -18
36 -17 29 1 -3 8 3 19 14 25 24 13 35 -3 20 -30 -6 -11 -8 -25 -5 -30 3 -6 -1
-7 -10 -4 -13 5 -16 1 -13 -21 2 -17 -2 -30 -11 -33 -10 -3 -12 1 -8 17 3 15
0 24 -10 28 -15 6 -36 -15 -28 -27 6 -10 -79 0 -89 10 -6 6 -5 18 2 32 21 42
19 72 -5 83 -22 9 -30 34 -17 48 3 3 22 -4 42 -16 26 -15 37 -18 40 -9z m148
0 c-1 -13 -9 -24 -18 -26 -21 -4 -24 18 -6 36 18 18 25 15 24 -10z m2712 -11
c6 -5 12 -17 12 -27 0 -26 -57 -83 -75 -76 -21 8 -19 23 6 36 17 10 20 17 14
51 -6 35 -5 38 12 32 10 -3 24 -10 31 -16z m-3496 -22 c0 -5 -5 -11 -11 -13
-6 -2 -11 4 -11 13 0 9 5 15 11 13 6 -2 11 -8 11 -13z m1808 5 c0 -5 -4 -10
-10 -10 -5 0 -10 5 -10 10 0 6 5 10 10 10 6 0 10 -4 10 -10z m-1310 -46 c0
-19 -4 -34 -10 -34 -5 0 -10 4 -10 8 0 5 -9 19 -20 32 -24 28 -19 39 15 32 21
-4 25 -10 25 -38z m2335 25 c13 -13 29 -19 50 -18 40 4 87 -11 102 -30 7 -10
26 -16 52 -16 23 0 41 -3 41 -7 0 -5 -7 -8 -15 -8 -8 0 -15 -2 -15 -4 0 -2 -3
-11 -6 -20 -5 -13 -2 -13 20 -3 14 7 26 15 26 20 0 4 7 7 15 7 22 0 18 -38 -5
-45 -26 -8 -26 -21 1 -28 23 -6 23 -44 0 -39 -26 5 -6 -42 21 -52 23 -8 34 -6
58 12 l30 23 0 -25 c0 -30 -9 -36 -55 -38 -19 -1 -36 -5 -36 -10 -1 -4 -2 -12
-3 -17 0 -4 -18 -23 -38 -41 -21 -19 -38 -41 -38 -51 0 -22 -69 -37 -81 -18
-4 7 -2 17 6 23 7 6 15 32 17 58 3 45 2 47 -22 46 -49 -3 -79 2 -82 15 -2 8
-14 10 -38 6 -19 -4 -25 -7 -14 -8 22 -1 34 -25 34 -68 0 -26 12 -30 30 -9 14
18 43 9 35 -12 -3 -8 -1 -20 5 -27 7 -9 7 -21 -2 -39 -9 -21 -17 -26 -34 -22
-13 4 -27 0 -34 -9 -7 -8 -25 -15 -41 -15 -32 0 -108 48 -109 68 0 6 -9 12
-20 12 -10 0 -23 7 -28 17 -14 24 -39 9 -44 -26 -3 -23 0 -31 14 -34 16 -5 18
-12 12 -49 -4 -23 -8 -44 -9 -46 -1 -1 -14 2 -29 7 -14 6 -58 8 -97 6 -63 -4
-72 -3 -76 14 -6 24 -53 34 -74 15 -8 -8 -28 -14 -43 -14 -15 0 -25 -4 -21 -9
6 -11 -33 -26 -43 -17 -3 4 -7 16 -9 27 -3 18 0 20 23 15 42 -11 82 46 74 103
-2 15 17 31 38 31 6 0 12 -7 12 -15 0 -8 7 -15 15 -15 8 0 15 5 15 10 0 6 -5
10 -10 10 -18 0 -31 49 -20 71 14 26 30 24 63 -6 32 -30 33 -34 10 -51 -23
-17 -7 -47 28 -53 22 -3 38 -17 39 -32 0 -9 -48 -29 -70 -29 -23 0 -26 -13 -6
-29 10 -9 15 -8 20 4 7 19 56 20 56 1 0 -9 7 -12 20 -9 11 3 20 9 20 14 0 5 9
9 20 9 11 0 20 5 20 11 0 5 -10 9 -22 7 -15 -2 -26 5 -34 21 -7 14 -25 38 -39
53 -22 23 -25 31 -15 43 7 8 19 15 26 15 8 0 14 5 14 11 0 5 -4 8 -9 5 -5 -3
-23 -1 -40 5 -31 11 -42 41 -21 54 6 4 9 -4 7 -17 -2 -20 3 -23 34 -26 23 -2
40 2 49 12 15 19 37 21 42 5 2 -6 15 -12 28 -13 18 -1 25 -7 26 -22 2 -37 11
-42 56 -30 65 17 90 61 46 81 -32 15 -35 35 -4 35 19 0 26 5 26 20 0 11 -7 20
-16 20 -10 0 -13 6 -10 18 4 11 -2 23 -14 32 -11 8 -20 18 -20 22 0 14 28 8
34 -7 8 -22 25 -18 23 5 -1 12 -8 20 -19 20 -13 0 -18 8 -18 30 0 17 5 30 10
30 6 0 20 11 32 25 26 30 30 31 53 4z m-1985 -4 c0 -8 7 -15 16 -15 9 0 14 -6
11 -12 -4 -12 -24 -13 -55 -3 -10 4 -10 8 0 25 15 24 28 26 28 5z m1810 0 c0
-8 -4 -15 -10 -15 -5 0 -10 7 -10 15 0 8 5 15 10 15 6 0 10 -7 10 -15z m-2500
-5 c0 -5 -4 -10 -10 -10 -5 0 -10 5 -10 10 0 6 5 10 10 10 6 0 10 -4 10 -10z
m1295 -14 c0 -30 -31 -44 -51 -24 -24 24 -11 50 23 46 20 -2 28 -9 28 -22z
m1590 -6 c3 -5 -1 -10 -10 -10 -9 0 -13 5 -10 10 3 6 8 10 10 10 2 0 7 -4 10
-10z m-11865 -4 c0 -3 -4 -8 -10 -11 -5 -3 -10 -1 -10 4 0 6 5 11 10 11 6 0
10 -2 10 -4z m9177 -28 c-3 -8 -6 -5 -6 6 -1 11 2 17 5 13 3 -3 4 -12 1 -19z
m2343 -9 c0 -23 -19 -34 -33 -20 -6 6 -19 11 -29 11 -19 0 -25 16 -8 22 6 2
24 3 40 4 23 1 30 -3 30 -17z m-1880 -9 c-6 -11 -17 -20 -25 -20 -8 0 -15 9
-15 20 0 15 7 20 25 20 23 0 24 -2 15 -20z m-372 -12 c19 -19 14 -28 -18 -28
-20 0 -30 -5 -30 -15 0 -21 -17 -19 -30 5 -9 17 -8 20 8 20 11 0 25 7 32 15
15 18 22 19 38 3z m2135 -1 c3 -9 -2 -13 -16 -12 -11 1 -23 7 -25 13 -5 17 35
15 41 -1z m-1692 -37 c5 0 9 7 9 15 0 8 5 15 11 15 7 0 9 -9 5 -22 -3 -13 -6
-29 -6 -35 0 -18 -27 -16 -34 2 -3 8 -12 15 -21 15 -20 0 -19 10 3 26 14 10
18 10 20 -2 2 -8 8 -14 13 -14z m-9678 -22 c-4 -8 -33 -11 -33 -4 0 2 3 11 6
20 5 12 9 13 19 3 7 -7 11 -15 8 -19z m9552 -9 c0 -16 -28 -24 -53 -14 -15 6
-13 8 8 20 29 16 45 14 45 -6z m1834 -12 c-15 -12 -32 -32 -38 -44 -16 -31
-33 -29 -25 3 4 17 2 29 -7 35 -20 12 -4 23 17 11 13 -7 22 -6 32 4 7 8 21 14
30 14 13 -1 11 -6 -9 -23z m1011 3 c0 -5 -9 -10 -21 -10 -11 0 -17 5 -14 10 3
6 13 10 21 10 8 0 14 -4 14 -10z m-12773 -15 c3 -9 3 -18 1 -21 -9 -9 -38 8
-38 22 0 19 29 18 37 -1z m9541 -3 c2 -7 -3 -12 -12 -12 -9 0 -16 7 -16 16 0
17 22 14 28 -4z m-9158 -1 c0 -13 -26 -32 -33 -24 -14 13 -6 33 13 33 11 0 20
-4 20 -9z m12335 -1 c3 -5 17 -10 30 -10 13 0 26 -4 30 -9 6 -11 -25 -31 -48
-31 -23 0 -61 35 -53 48 9 15 33 16 41 2z m-2489 -37 c-7 -7 -26 7 -26 19 0 6
6 6 15 -2 9 -7 13 -15 11 -17z m-746 -13 c0 -23 10 -26 28 -8 9 9 16 7 31 -6
14 -13 28 -16 50 -11 37 8 39 0 9 -26 -25 -20 -108 -27 -108 -9 0 6 -11 23
-25 38 -30 32 -31 42 -5 42 13 0 20 -7 20 -20z m-9790 -9 c0 -30 -29 -55 -46
-40 -18 15 -18 24 2 43 21 22 44 20 44 -3z m-410 3 c0 -10 -31 -36 -37 -31
-10 10 6 37 22 37 8 0 15 -3 15 -6z m500 -4 c0 -5 -4 -10 -10 -10 -5 0 -10 5
-10 10 0 6 5 10 10 10 6 0 10 -4 10 -10z m12831 -3 c-1 -4 5 -20 12 -35 7 -15
11 -37 9 -49 -4 -25 -32 -32 -32 -8 0 21 -20 19 -21 -2 -1 -10 -1 -33 0 -51 3
-33 2 -34 -28 -27 -33 7 -36 4 -21 -25 6 -12 7 -21 1 -25 -6 -3 -15 4 -21 15
-14 25 -24 25 -49 -1 -27 -29 -33 -10 -11 39 18 39 18 42 2 51 -14 8 -15 12
-4 23 11 11 15 10 23 -4 14 -25 61 -24 57 1 -2 11 9 31 27 47 17 15 31 33 31
38 1 6 2 15 3 19 0 5 6 7 12 5 6 -2 10 -7 10 -11z m-1075 -19 c4 -5 1 -15 -6
-21 -9 -9 -15 -7 -26 7 -8 11 -14 23 -14 27 0 10 39 -1 46 -13z m-11470 -16
c-9 -9 -37 8 -31 18 5 8 11 7 21 -1 8 -6 12 -14 10 -17z m12684 8 c0 -5 -10
-10 -22 -9 -22 0 -22 1 -3 9 11 5 21 9 23 9 1 1 2 -3 2 -9z m-2945 -10 c-3 -5
-13 -10 -21 -10 -8 0 -14 5 -14 10 0 6 9 10 21 10 11 0 17 -4 14 -10z m1625 0
c0 -5 -4 -10 -10 -10 -5 0 -10 5 -10 10 0 6 5 10 10 10 6 0 10 -4 10 -10z
m-1032 -17 c-4 -21 -36 -29 -51 -14 -9 9 -8 14 3 21 25 16 52 12 48 -7z m2452
-4 c0 -6 -4 -7 -10 -4 -5 3 -10 11 -10 16 0 6 5 7 10 4 6 -3 10 -11 10 -16z
m-2275 -39 c12 0 55 -58 55 -74 0 -8 -43 -8 -64 0 -12 5 -14 10 -6 19 12 14
-9 65 -27 65 -14 0 -17 13 -6 24 5 4 14 -2 22 -13 7 -12 19 -21 26 -21z
m-10735 10 c0 -11 -7 -20 -15 -20 -15 0 -21 21 -8 33 12 13 23 7 23 -13z m332
8 c-9 -9 -15 -9 -24 0 -9 9 -7 12 12 12 19 0 21 -3 12 -12z m5178 -18 c0 -5
-4 -10 -10 -10 -5 0 -10 5 -10 10 0 6 5 10 10 10 6 0 10 -4 10 -10z m4670 2
c0 -13 -12 -22 -22 -16 -10 6 -1 24 13 24 5 0 9 -4 9 -8z m2255 -2 c3 -5 1
-10 -4 -10 -6 0 -11 5 -11 10 0 6 2 10 4 10 3 0 8 -4 11 -10z m103 -8 c2 -7
-6 -12 -17 -12 -21 0 -27 11 -14 24 9 9 26 2 31 -12z m-2168 -7 c0 -8 -7 -15
-15 -15 -8 0 -15 7 -15 15 0 8 7 15 15 15 8 0 15 -7 15 -15z m318 -27 c-4 -30
-43 -36 -57 -10 -13 24 -5 32 31 32 25 0 29 -4 26 -22z m-10743 2 c3 -5 1 -10
-4 -10 -6 0 -11 5 -11 10 0 6 2 10 4 10 3 0 8 -4 11 -10z m10245 0 c0 -5 -4
-10 -10 -10 -5 0 -10 5 -10 10 0 6 5 10 10 10 6 0 10 -4 10 -10z m1283 -31
c-31 -11 -38 -29 -15 -36 24 -6 36 -29 21 -39 -6 -3 -20 -7 -32 -9 -12 -1 -30
-6 -40 -10 -16 -7 -18 -5 -9 11 5 10 16 33 23 49 20 46 28 53 51 47 l22 -5
-21 -8z m927 11 c0 -5 -5 -10 -11 -10 -5 0 -7 5 -4 10 3 6 8 10 11 10 2 0 4
-4 4 -10z m-6852 -14 c-13 -14 -28 -12 -28 5 0 5 9 9 20 9 17 0 19 -2 8 -14z
m5049 -11 c3 -9 2 -19 -1 -23 -8 -8 -38 10 -44 26 -6 18 38 14 45 -3z m-11467
-5 c0 -5 -7 -10 -15 -10 -8 0 -15 5 -15 10 0 6 7 10 15 10 8 0 15 -4 15 -10z
m11570 -57 c24 6 36 -8 17 -20 -7 -4 -16 -16 -20 -25 -8 -22 -37 -24 -37 -3 0
12 -9 13 -44 9 l-45 -7 1 32 c1 31 11 40 23 21 3 -5 20 -10 36 -10 27 0 29 2
19 20 -6 11 -8 26 -4 32 5 8 13 0 21 -21 11 -25 19 -32 33 -28z m20 47 c0 -5
-7 -10 -16 -10 -8 0 -12 5 -9 10 3 6 10 10 16 10 5 0 9 -4 9 -10z m580 -16 c0
-14 -21 -19 -33 -7 -9 9 13 34 24 27 5 -3 9 -12 9 -20z m1090 6 c0 -5 -7 -10
-15 -10 -8 0 -15 5 -15 10 0 6 7 10 15 10 8 0 15 -4 15 -10z m407 -16 c-9 -9
-28 6 -21 18 4 6 10 6 17 -1 6 -6 8 -13 4 -17z m-711 -16 c18 -21 18 -21 0
-15 -10 4 -25 2 -32 -4 -17 -14 -44 -5 -44 15 0 8 12 16 28 19 15 2 27 5 28 6
0 0 9 -9 20 -21z m-726 -4 c0 -2 -9 -4 -20 -4 -11 0 -20 4 -20 9 0 5 9 7 20 4
11 -3 20 -7 20 -9z m-562 -21 c-2 -10 -12 -18 -23 -18 -11 0 -21 8 -23 18 -3
13 3 17 23 17 20 0 26 -4 23 -17z m2092 2 c-7 -8 -16 -12 -21 -9 -13 8 -1 24
18 24 13 0 13 -3 3 -15z m-2354 -22 c-10 -10 -19 5 -10 18 6 11 8 11 12 0 2
-7 1 -15 -2 -18z m-156 7 c0 -5 -4 -10 -10 -10 -5 0 -10 5 -10 10 0 6 5 10 10
10 6 0 10 -4 10 -10z m2440 -10 c0 -5 -4 -10 -10 -10 -5 0 -10 5 -10 10 0 6 5
10 10 10 6 0 10 -4 10 -10z m-13600 -20 c0 -5 -2 -10 -4 -10 -3 0 -8 5 -11 10
-3 6 -1 10 4 10 6 0 11 -4 11 -10z m12380 -10 c0 -5 -4 -10 -10 -10 -5 0 -10
5 -10 10 0 6 5 10 10 10 6 0 10 -4 10 -10z m430 -15 c-7 -8 -19 -11 -28 -7
-16 6 -16 7 1 10 9 2 17 8 17 13 0 6 5 7 10 4 8 -5 7 -11 0 -20z m-860 -41 c0
-8 -5 -12 -10 -9 -6 4 -8 11 -5 16 9 14 15 11 15 -7z m-50 -3 c0 -14 -18 -23
-30 -16 -6 4 -8 11 -5 16 8 12 35 12 35 0z m1880 -21 c0 -5 -9 -10 -20 -10
-11 0 -20 5 -20 10 0 6 9 10 20 10 11 0 20 -4 20 -10z m-13020 -10 c0 -5 -4
-10 -10 -10 -5 0 -10 5 -10 10 0 6 5 10 10 10 6 0 10 -4 10 -10z m12968 -29
c3 -20 0 -22 -20 -16 -31 10 -33 12 -18 30 17 21 34 14 38 -14z m-2368 -1 c0
-5 -4 -10 -10 -10 -5 0 -10 5 -10 10 0 6 5 10 10 10 6 0 10 -4 10 -10z m1334
-41 c-3 -5 -10 -7 -15 -3 -5 3 -7 10 -3 15 3 5 10 7 15 3 5 -3 7 -10 3 -15z
m-11634 -19 c0 -5 -4 -10 -10 -10 -5 0 -10 5 -10 10 0 6 5 10 10 10 6 0 10 -4
10 -10z m520 0 c0 -5 -4 -10 -10 -10 -5 0 -10 5 -10 10 0 6 5 10 10 10 6 0 10
-4 10 -10z m10260 -20 c0 -5 -7 -10 -15 -10 -8 0 -15 5 -15 10 0 6 7 10 15 10
8 0 15 -4 15 -10z m40 6 c0 -3 -4 -8 -10 -11 -5 -3 -10 -1 -10 4 0 6 5 11 10
11 6 0 10 -2 10 -4z m1735 -26 c3 -5 1 -10 -4 -10 -6 0 -11 5 -11 10 0 6 2 10
4 10 3 0 8 -4 11 -10z m136 -5 c-1 -15 -24 -12 -29 3 -3 9 2 13 12 10 10 -1
17 -7 17 -13z m-2206 -55 c3 -5 -1 -10 -9 -10 -9 0 -16 5 -16 10 0 6 4 10 9
10 6 0 13 -4 16 -10z m-11555 -80 c0 -5 -7 -10 -16 -10 -8 0 -12 5 -9 10 3 6
10 10 16 10 5 0 9 -4 9 -10z m12063 -15 c1 -5 -6 -11 -15 -13 -11 -2 -18 3
-18 13 0 17 30 18 33 0z m-1313 -71 c0 -2 -7 -4 -15 -4 -8 0 -15 4 -15 10 0 5
7 7 15 4 8 -4 15 -8 15 -10z m-8725 -54 c3 -5 1 -10 -4 -10 -6 0 -11 5 -11 10
0 6 2 10 4 10 3 0 8 -4 11 -10z m5859 -46 c9 -3 16 -12 16 -20 0 -17 -12 -18
-26 -4 -14 14 -41 3 -47 -19 -5 -19 -74 -57 -118 -65 -14 -2 -48 -15 -76 -29
-27 -14 -66 -28 -86 -32 -29 -6 -45 -17 -68 -50 -17 -23 -42 -48 -55 -54 -31
-14 -101 -14 -109 -1 -3 6 -24 10 -45 10 -22 0 -45 7 -55 16 -9 9 -36 19 -61
22 -24 2 -44 9 -44 15 0 6 20 7 58 2 81 -11 109 -10 127 5 10 9 12 17 5 30 -8
15 -2 23 37 49 79 53 199 94 275 96 37 1 71 4 74 8 4 4 40 7 80 7 40 0 76 5
79 10 7 12 17 12 39 4z m4016 -24 c0 -5 -4 -10 -9 -10 -6 0 -13 5 -16 10 -3 6
1 10 9 10 9 0 16 -4 16 -10z m-8470 -95 c0 -16 -27 -32 -37 -22 -3 4 -3 13 0
22 8 20 37 20 37 0z m5023 -101 c7 -2 21 -17 30 -33 11 -19 35 -35 73 -50 34
-13 80 -42 117 -76 36 -32 70 -55 83 -55 12 0 31 -10 41 -23 44 -55 126 -87
129 -49 1 6 2 16 3 21 0 6 15 18 31 28 35 20 39 33 9 33 -12 0 -19 5 -16 13 2
6 14 12 27 12 21 0 24 -5 27 -43 1 -24 -2 -52 -7 -62 -8 -15 -4 -20 21 -31 25
-10 52 -10 139 0 157 18 173 21 199 38 13 8 47 19 75 23 75 12 167 48 201 80
30 28 51 29 71 2 7 -9 28 -14 61 -14 37 0 52 -5 61 -19 7 -11 8 -20 2 -24 -6
-3 -10 -16 -10 -28 0 -23 -79 -189 -92 -195 -5 -2 -8 -12 -8 -23 0 -10 -4 -19
-9 -19 -5 0 -12 -8 -15 -18 -4 -10 -24 -37 -46 -60 -22 -23 -40 -44 -40 -48 0
-4 -15 -23 -32 -44 -54 -61 -68 -80 -68 -90 0 -6 -7 -13 -15 -16 -8 -4 -15
-11 -15 -18 0 -19 -60 -66 -76 -59 -18 7 -69 -14 -110 -44 -43 -32 -149 -84
-182 -89 -15 -3 -35 -6 -44 -8 -10 -1 -21 -5 -24 -9 -4 -4 -22 -7 -41 -7 -23
0 -33 5 -33 15 0 19 -19 19 -44 0 -24 -18 -53 -19 -58 -3 -3 7 -27 13 -59 13
-78 3 -94 8 -94 35 -1 29 -70 90 -99 87 -13 -1 -20 3 -18 11 1 8 -7 16 -18 19
-23 6 -27 23 -6 23 16 0 31 18 23 26 -3 3 -33 0 -66 -7 -48 -9 -68 -9 -88 0
l-27 12 26 17 c14 9 42 34 61 55 20 20 45 37 57 37 48 0 149 73 150 108 0 6 4
12 8 12 4 0 13 13 19 30 14 37 -5 66 -54 79 -36 10 -45 4 -60 -44 -14 -44 -43
-46 -43 -3 0 18 -4 39 -8 46 -9 14 -42 6 -42 -10 0 -5 -4 -6 -10 -3 -5 3 -7 0
-4 -8 3 -9 -10 -26 -33 -45 -37 -29 -40 -29 -50 -13 -7 10 -22 18 -34 17 -18
-1 -24 6 -30 32 -13 63 -60 90 -117 66 -17 -7 -33 -10 -35 -7 -3 2 -56 6 -119
7 -106 3 -184 11 -218 23 -12 4 -11 7 5 13 15 7 12 8 -16 8 -45 -1 -58 7 -52
32 4 16 0 20 -20 20 -14 0 -27 -4 -29 -9 -3 -8 -101 -61 -113 -61 -13 0 -3 40
13 52 41 30 36 38 -23 36 -36 -1 -59 -7 -62 -15 -3 -7 -11 -13 -19 -13 -40 0
41 66 145 119 61 31 68 32 130 24 155 -19 233 -10 356 42 17 7 40 16 53 20 34
10 26 25 -14 25 -21 0 -33 -4 -29 -10 3 -5 -1 -10 -9 -10 -9 0 -16 6 -17 13 0
9 -2 9 -6 0 -3 -9 -10 -10 -24 -3 -47 26 -3 77 84 97 48 11 188 10 220 -3z
m990 -1 c-7 -2 -19 -2 -25 0 -7 3 -2 5 12 5 14 0 19 -2 13 -5z m-73 -12 c0
-16 -75 -44 -121 -45 -25 -1 -53 -7 -62 -14 -9 -7 -31 -12 -49 -10 -25 2 -33
8 -33 22 0 26 39 37 148 41 48 1 91 5 94 9 9 9 23 7 23 -3z m125 -1 c-3 -5
-10 -10 -16 -10 -5 0 -9 5 -9 10 0 6 7 10 16 10 8 0 12 -4 9 -10z m-1798 -17
c4 -10 -64 -43 -88 -43 -16 0 0 20 35 41 32 20 47 20 53 2z m438 -3 c-3 -5
-13 -10 -21 -10 -8 0 -12 5 -9 10 3 6 13 10 21 10 8 0 12 -4 9 -10z m-7907
-47 c-2 -10 -13 -19 -26 -21 -24 -4 -25 -2 -16 22 9 23 46 21 42 -1z m2982 -3
c0 -11 -7 -20 -15 -20 -15 0 -21 21 -8 33 12 13 23 7 23 -13z m4335 -21 c-4
-5 -13 -9 -22 -9 -13 0 -13 3 -3 15 13 15 35 11 25 -6z m-6295 -79 c0 -11 -6
-20 -14 -20 -18 0 -29 16 -21 30 11 18 35 11 35 -10z m11100 -90 c0 -5 -7 -10
-16 -10 -8 0 -12 5 -9 10 3 6 10 10 16 10 5 0 9 -4 9 -10z m-12052 -358 c2 -7
-6 -12 -17 -12 -21 0 -27 11 -14 24 9 9 26 2 31 -12z m8372 -279 c0 -20 -24
-11 -28 10 -2 12 1 15 12 11 9 -3 16 -13 16 -21z m-6060 -32 c0 -6 -4 -13 -10
-16 -5 -3 -10 1 -10 9 0 9 5 16 10 16 6 0 10 -4 10 -9z m-1960 -261 c0 -21
-24 -28 -35 -10 -8 14 3 30 21 30 8 0 14 -9 14 -20z m600 -549 c0 -6 -4 -13
-10 -16 -5 -3 -10 1 -10 9 0 9 5 16 10 16 6 0 10 -4 10 -9z m-1082 -1273 c-6
-18 -28 -21 -28 -4 0 9 7 16 16 16 9 0 14 -5 12 -12z m4755 -302 c8 -21 -16
-49 -39 -44 -23 4 -31 37 -12 49 20 13 45 11 51 -5z m3030 -1183 c3 -5 8 -24
12 -43 l7 -35 -20 21 c-12 12 -26 24 -33 26 -17 6 -4 38 15 38 8 0 17 -3 19
-7z m55 -38 c6 -13 8 -27 3 -29 -12 -8 -44 31 -36 43 10 17 21 13 33 -14z
m172 -125 c0 -5 -7 -10 -15 -10 -8 0 -15 -9 -15 -20 0 -11 5 -20 10 -20 13 0
13 -37 0 -42 -6 -2 -13 -41 -16 -88 -4 -47 -13 -95 -20 -107 -8 -12 -14 -29
-14 -37 0 -8 -10 -22 -22 -31 -22 -15 -24 -14 -55 21 -36 41 -40 65 -19 116 8
19 18 58 22 86 3 28 13 57 20 63 8 6 14 17 14 24 0 7 12 36 26 64 l27 51 28
-30 c16 -16 29 -34 29 -40z m-200 -64 c0 -16 -37 -28 -46 -15 -8 14 5 29 27
29 10 0 19 -6 19 -14z m20 -393 c0 -5 -5 -15 -10 -23 -8 -12 -10 -11 -10 8 0
12 5 22 10 22 6 0 10 -3 10 -7z m-7417 -20 c9 -9 -13 -34 -24 -27 -14 8 -11
34 4 34 8 0 17 -3 20 -7z"/>
<path d="M7810 9875 c0 -17 38 -26 44 -10 3 8 -5 15 -20 18 -15 2 -24 0 -24
-8z"/>
<path d="M7679 8106 c-3 -3 -16 -7 -29 -9 -26 -4 -37 -21 -21 -32 6 -3 11 0
11 7 1 7 10 2 21 -12 16 -19 28 -24 56 -21 49 4 68 23 44 45 -18 17 -72 31
-82 22z"/>
<path d="M7550 8063 c-34 -31 -45 -78 -19 -78 9 0 24 -6 33 -14 19 -16 25 -5
24 44 0 17 3 40 7 53 10 30 -8 28 -45 -5z"/>
<path d="M10044 7869 c-11 -6 -28 -24 -38 -40 -10 -16 -21 -27 -26 -24 -12 8
-38 -4 -44 -21 -3 -8 -1 -25 4 -39 11 -29 50 -34 70 -10 7 8 19 15 27 15 7 0
16 6 19 14 3 8 21 22 40 31 35 17 41 33 24 66 -12 21 -42 24 -76 8z"/>
<path d="M9691 7651 c-18 -34 -13 -51 15 -51 22 0 25 4 22 32 -4 37 -22 47
-37 19z"/>
<path d="M6680 6909 c0 -5 5 -7 10 -4 6 3 10 8 10 11 0 2 -4 4 -10 4 -5 0 -10
-5 -10 -11z"/>
<path d="M7335 6430 c3 -5 10 -10 16 -10 5 0 9 5 9 10 0 6 -7 10 -16 10 -8 0
-12 -4 -9 -10z"/>
<path d="M8088 6243 c-24 -6 -23 -34 2 -40 11 -3 20 -9 20 -14 0 -17 15 -8 26
15 17 37 -1 51 -48 39z"/>
<path d="M8750 6029 c0 -5 5 -7 10 -4 6 3 10 8 10 11 0 2 -4 4 -10 4 -5 0 -10
-5 -10 -11z"/>
<path d="M8700 6010 c-9 -6 -10 -10 -3 -10 6 0 15 5 18 10 8 12 4 12 -15 0z"/>
<path d="M13257 7053 c-13 -12 -7 -43 8 -43 9 0 15 9 15 25 0 24 -10 32 -23
18z"/>
<path d="M9867 5538 c-36 -49 -47 -73 -47 -107 0 -24 5 -32 24 -37 46 -11 136
84 136 143 0 45 -13 39 -43 -17 -26 -49 -57 -66 -57 -30 0 11 7 34 15 50 21
40 2 38 -28 -2z"/>
<path d="M8280 5490 c0 -5 9 -10 20 -10 11 0 20 5 20 10 0 6 -9 10 -20 10 -11
0 -20 -4 -20 -10z"/>
<path d="M9273 5011 c-26 -22 -31 -51 -9 -51 16 0 46 37 46 57 0 18 -11 16
-37 -6z"/>
</g>
</svg>
